<?xml version="1.0" encoding="utf-8"?>
<!-- Generator: Adobe Illustrator 28.0.0, SVG Export Plug-In . SVG Version: 6.00 Build 0)  -->
<svg version="1.1" id="Layer_1" xmlns="http://www.w3.org/2000/svg" xmlns:xlink="http://www.w3.org/1999/xlink" x="0px" y="0px"
	 viewBox="0 0 16 16" style="enable-background:new 0 0 16 16;" xml:space="preserve">
<style type="text/css">
	.st0{fill:#C10000;}
	.st1{fill:#4B00C1;}
	.st2{fill:#007BC2;}
	.st3{fill:#BF007F;}
	.st4{fill:#74149C;}
</style>
<g>
	<path class="st1" d="M16,2C16,1.5,15.6,1,15.1,1H0.9C0.4,1,0,1.5,0,2V14C0,14.5,0.4,15,0.9,15h14.1c0.2,0,0.4-0.1,0.6-0.2
		c0.1-0.1,0.1-0.1,0.2-0.2c0.1-0.2,0.2-0.3,0.2-0.6V2z M1.2,14C1.1,14,1,13.9,1,13.8V6.2C1,6,1.1,5.9,1.3,6c2,0,4,0,6,0
		c0.1,0,0.1,0,0.2,0c0,2.7,0,5.3,0,8c-0.1,0-0.1,0-0.2,0H1.2z M15,2c0,2.7,0,5.3,0,8c-2.2,0-4.3,0-6.5,0c0-2.7,0-5.3,0-8H15z"/>
</g>
</svg>
