<?xml version="1.0" encoding="utf-8"?>
<!-- Generator: Adobe Illustrator 27.1.1, SVG Export Plug-In . SVG Version: 6.00 Build 0)  -->
<svg version="1.1" id="Layer_1" xmlns="http://www.w3.org/2000/svg" xmlns:xlink="http://www.w3.org/1999/xlink" x="0px" y="0px"
	 viewBox="0 0 16 16" style="enable-background:new 0 0 16 16;" xml:space="preserve">
<style type="text/css">
	.st0{fill-rule:evenodd;clip-rule:evenodd;fill:#007BC2;}
</style>
<path class="st0" d="M14.1,2.5c0-0.3-0.3-0.6-0.6-0.6H6c-0.3,0-0.6,0.3-0.6,0.6S5.6,3.1,6,3.1h6.1l-10,10c-0.2,0.2-0.2,0.6,0,0.8
	c0.2,0.2,0.6,0.2,0.8,0l10-10v6.1c0,0.3,0.3,0.6,0.6,0.6c0.3,0,0.6-0.3,0.6-0.6V2.5z"/>
<path class="st0" d="M13.5,1.9H6.4C6,1.9,5.8,2.2,5.8,2.5S6,3.1,6.4,3.1h5.7"/>
<path class="st0" d="M12.5,1.9H6c-0.3,0-0.6,0.3-0.6,0.6S5.6,3.1,6,3.1h5.1"/>
<path class="st0" d="M12.5,1.9H6c-0.3,0-0.6,0.3-0.6,0.6S5.6,3.1,6,3.1h5.1"/>
</svg>
