<?xml version="1.0" encoding="utf-8"?>
<!-- Generator: Adobe Illustrator 28.0.0, SVG Export Plug-In . SVG Version: 6.00 Build 0)  -->
<svg version="1.1" id="Layer_1" xmlns="http://www.w3.org/2000/svg" xmlns:xlink="http://www.w3.org/1999/xlink" x="0px" y="0px"
	 viewBox="0 0 16 16" style="enable-background:new 0 0 16 16;" xml:space="preserve">
<style type="text/css">
	.st0{fill:#C10000;}
	.st1{fill:#4B00C1;}
	.st2{fill:#007BC2;}
	.st3{fill:#BF007F;}
	.st4{fill:#74149C;}
</style>
<g>
	<path class="st1" d="M15.1,15H9.4c-0.5,0-0.9-0.4-0.9-0.9V9.4c0-0.5,0.4-0.9,0.9-0.9h5.6c0.5,0,0.9,0.4,0.9,0.9V14
		C16,14.5,15.6,15,15.1,15z"/>
	<path class="st1" d="M15.1,7.5H9.4c-0.5,0-0.9-0.4-0.9-0.9V2C8.5,1.5,8.9,1,9.4,1h5.6C15.6,1,16,1.5,16,2v4.6
		C16,7.1,15.6,7.5,15.1,7.5z"/>
	<path class="st1" d="M6.6,15H0.9C0.4,15,0,14.5,0,14V9.4c0-0.5,0.4-0.9,0.9-0.9h5.6c0.5,0,0.9,0.4,0.9,0.9V14
		C7.5,14.5,7.1,15,6.6,15z"/>
	<path class="st1" d="M6.6,7.5H0.9C0.4,7.5,0,7.1,0,6.6V2C0,1.5,0.4,1,0.9,1h5.6C7.1,1,7.5,1.5,7.5,2v4.6C7.5,7.1,7.1,7.5,6.6,7.5z"
		/>
</g>
</svg>
