<?xml version="1.0" encoding="utf-8"?>
<!-- Generator: Adobe Illustrator 28.3.0, SVG Export Plug-In . SVG Version: 6.00 Build 0)  -->
<svg version="1.1" id="Layer_1" xmlns="http://www.w3.org/2000/svg" xmlns:xlink="http://www.w3.org/1999/xlink" x="0px" y="0px"
	 viewBox="0 0 14 16" style="enable-background:new 0 0 14 16;" xml:space="preserve">
<style type="text/css">
	.st0{fill:#FFFFFF;}
</style>
<g>
	<path class="st0" d="M3,1.5H2c-1.1,0-2,0.9-2,2V14c0,1.1,0.9,2,2,2h10c1.1,0,2-0.9,2-2V3.5c0-1.1-0.9-2-2-2h-1v1h1c0.6,0,1,0.4,1,1
		V14c0,0.6-0.4,1-1,1H2c-0.6,0-1-0.4-1-1V3.5c0-0.6,0.4-1,1-1h1V1.5z"/>
	<path class="st0" d="M8.5,1C8.8,1,9,1.2,9,1.5v1C9,2.8,8.8,3,8.5,3h-3C5.2,3,5,2.8,5,2.5v-1C5,1.2,5.2,1,5.5,1H8.5z M5.5,0
		C4.7,0,4,0.7,4,1.5v1C4,3.3,4.7,4,5.5,4h3C9.3,4,10,3.3,10,2.5v-1C10,0.7,9.3,0,8.5,0H5.5z"/>
</g>
</svg>
