<?xml version="1.0" encoding="utf-8"?>
<!-- Generator: Adobe Illustrator 27.1.1, SVG Export Plug-In . SVG Version: 6.00 Build 0)  -->
<svg version="1.1" id="Layer_1" xmlns="http://www.w3.org/2000/svg" xmlns:xlink="http://www.w3.org/1999/xlink" x="0px" y="0px"
	 viewBox="0 0 2743.66 754.89" style="enable-background:new 0 0 2743.66 754.89;" xml:space="preserve">
<style type="text/css">
	.st0{fill:none;stroke:#74149B;stroke-miterlimit:10;}
	.st1{opacity:0.2;}
</style>
<g>
	<g>
		<g>
			<path class="st0" d="M947.64,471.91c0,6.65-0.01,13.3-0.01,19.95l0.01,129.99c0.01,30.85,0.01,101.64-0.08,133.03h1.04
				c0.1-31.4,0.09-102.19,0.08-133.03l-0.01-129.99c0-6.65,0-13.3,0.01-19.95c0.01-22.82,0.02-46.42-0.12-69.63
				c-0.01-1.58,0.34-2.47,1.19-2.99c0.88-0.54,2.45-0.76,5.09-0.7c10.87,0.22,22.44,0.23,36.41,0.01c2.31-0.04,3.67,0.16,4.44,0.64
				c0.75,0.45,1.06,1.22,1.05,2.55c-0.16,25.89-0.17,52.21-0.19,77.67l-0.01,11.64c-0.01,18.33-0.01,36.66-0.01,54.98v24.43v9.99
				c-0.01,44.4-0.01,129.19,0.1,174.38h1.04c-0.12-45.18-0.11-129.99-0.11-174.38v-9.99v-24.43c0-18.33-0.01-36.66,0.01-54.98
				l0.01-11.64c0.01-25.45,0.02-51.78,0.19-77.67c0.01-1.53-0.39-2.43-1.36-3.02c-0.99-0.61-2.59-0.86-5.2-0.82
				c-13.95,0.21-25.5,0.21-36.35-0.01c-2.99-0.06-4.73,0.21-5.85,0.88c-1.08,0.65-1.51,1.66-1.5,3.46
				C947.66,425.49,947.65,449.09,947.64,471.91z"/>
		</g>
		<g>
			<path class="st0" d="M842.61,754.89h1.04c0.11-33.47,0.11-106.35,0.1-139.23l-0.01-174.76c0-1.98,0-3.07,0.74-3.51
				c0.76-0.45,2.63-0.44,6.03-0.45c3.41,0,6.81,0.01,10.22,0.02c8.38,0.02,17.03,0.05,25.55-0.08c2.32-0.04,3.71,0.16,4.48,0.64
				c0.74,0.45,1.06,1.23,1.05,2.53c-0.17,22.68-0.18,45.73-0.19,68.03l-0.01,11.73c-0.01,16.12-0.01,32.24-0.01,48.36v21.5v165.22
				h1.04V589.68v-21.5c0-16.12-0.01-32.24,0.01-48.36l0.01-11.73c0.01-22.3,0.02-45.35,0.19-68.02c0.01-1.51-0.39-2.41-1.36-3
				c-1-0.62-2.57-0.86-5.24-0.82c-8.5,0.13-17.16,0.1-25.52,0.08c-3.41-0.01-6.81-0.02-10.22-0.02h-0.1c-7.49,0-7.7,0.13-7.7,4.61
				l0.01,174.76C842.72,648.54,842.73,721.43,842.61,754.89z"/>
		</g>
		<g>
			<path class="st0" d="M1001.05,582.91v5.94v56.13c0.01,23.27,0.01,86.22-0.08,109.93h1.04c0.09-23.7,0.08-86.65,0.08-109.93
				v-19.36v-42.71c0.01-34.21,0.02-69.58-0.12-104.37c-0.01-1.59,0.35-2.48,1.2-3c0.88-0.53,2.45-0.75,5.07-0.69
				c10.24,0.21,21.44,0.22,34.26,0.01c2.41-0.05,3.85,0.17,4.66,0.66c0.79,0.48,1.12,1.28,1.11,2.69
				c-0.16,42.42-0.18,66.08-0.19,107.78l-0.01,30.74c-0.02,32.53-0.03,105.06,0.11,138.17h1.04c-0.15-33.11-0.13-105.64-0.11-138.17
				l0.01-30.74c0.01-41.71,0.03-65.37,0.19-107.78c0.01-1.59-0.42-2.54-1.42-3.16c-1.05-0.64-2.66-0.89-5.42-0.85
				c-12.8,0.21-23.99,0.2-34.2-0.01c-2.98-0.06-4.71,0.2-5.83,0.88c-1.09,0.66-1.52,1.66-1.51,3.47
				C1001.07,513.33,1001.06,548.7,1001.05,582.91z"/>
		</g>
		<g>
			<path class="st0" d="M897.15,754.89V498.65c0-1.88,0-2.91,0.69-3.33c0.7-0.42,2.45-0.42,5.63-0.42c5.51,0,11.02,0,16.53,0
				c5.55,0,11.1,0,16.65,0c3.26,0,5.06,0,5.79,0.41c0.7,0.4,0.7,1.4,0.7,3.22v96.16v160.2h1.04V599.28V498.54
				c0-4.12-0.28-4.28-7.54-4.28c-11.06,0-22.12,0-33.18,0c-7.08,0-7.36,0.17-7.36,4.4v256.25h1.05V754.89z"/>
		</g>
	</g>
	<g>
		<g>
			<path class="st0" d="M421.64,596.48v21.37c0,32.16,0,104.3-0.08,137.05h1.04c0.09-32.75,0.08-104.89,0.08-137.05v-21.37
				c0-28.02,0-56.05-0.01-84.07c-0.01-68.92-0.01-137.86,0-206.77c0-1.89,0-2.93,0.75-3.35c0.77-0.43,2.64-0.43,6.04-0.43
				c3.3,0,6.62,0.01,9.92,0.01c8.15,0.02,16.59,0.04,24.87-0.06c1.99-0.03,3.16,0.14,3.8,0.54c0.6,0.38,0.86,1.02,0.84,2.09
				c-0.19,11.25-0.19,22.7-0.19,33.76v4.26c0,94.04,0,188.07,0,282.11V754.9h1.04V624.57c0-94.04,0-188.07,0-282.11v-4.26
				c0-11.07-0.01-22.5,0.19-33.75c0.02-1.26-0.33-2.05-1.15-2.55c-0.87-0.54-2.23-0.76-4.55-0.73c-8.28,0.1-16.7,0.08-24.85,0.06
				c-3.31-0.01-6.6-0.01-9.93-0.01c-7.59,0-7.81,0.12-7.81,4.43c0,68.92,0,137.85,0,206.77
				C421.64,540.43,421.64,568.45,421.64,596.48z"/>
		</g>
		<g>
			<path class="st0" d="M473.11,754.89h1.04c0.07-51.79,0.07-143.3,0.07-194.19v-29.47V343.97c0-1.92,0-2.98,0.74-3.4
				c0.75-0.43,2.59-0.43,5.93-0.43h0.39c3.28,0,6.58,0.01,9.86,0.01c8.74,0.01,17.78,0.02,26.67-0.05c1.74-0.01,2.79,0.15,3.38,0.52
				c0.49,0.31,0.71,0.81,0.7,1.54c-0.02,0.66,0.07,1.32,0.16,1.96c0.07,0.57,0.16,1.16,0.16,1.74c0.01,10.12,0.04,20.24,0.08,30.36
				c0.08,23.17,0.17,47.13-0.13,70.68c-0.7,55.31-0.6,111.53-0.5,165.91c0.06,33.81,0.12,107.66-0.01,142.09h1.04
				c0.13-34.42,0.07-108.27,0.01-142.09c-0.1-54.38-0.2-110.61,0.5-165.91c0.3-23.57,0.22-47.52,0.13-70.69
				c-0.03-10.12-0.07-20.24-0.07-30.36c0-0.6-0.08-1.21-0.16-1.79c-0.08-0.62-0.17-1.27-0.16-1.9c0.02-0.91-0.31-1.56-1-2
				c-0.81-0.51-2.08-0.72-4.12-0.71c-8.88,0.06-17.92,0.05-26.66,0.05c-3.42-0.01-6.85-0.01-10.25-0.01c-7.49,0-7.69,0.13-7.7,4.49
				v187.27v29.47C473.18,611.59,473.19,703.11,473.11,754.89z"/>
		</g>
		<g>
			<path class="st0" d="M526.56,541.36v20.89v27c0,41.53,0.01,123.37-0.09,165.65h1.04c0.1-42.28,0.1-124.11,0.09-165.65v-27v-20.89
				c0.01-26.98,0.01-54.88-0.09-82.32c-0.01-1.48,0.3-2.28,1.06-2.74c0.71-0.43,1.93-0.64,3.88-0.64c0.2,0,0.41,0,0.62,0.01
				c11.4,0.22,23.31,0.22,36.41,0.01c2.47-0.04,3.86,0.15,4.66,0.64c0.76,0.46,1.08,1.25,1.07,2.63
				c-0.16,26.91-0.17,54.27-0.18,80.73l-0.01,19.7c0,6.78,0,13.56,0,20.34v9.32V754.9h1.04V615.01v-35.28c0-6.78,0-13.56,0-20.34
				l0.01-19.7c0.01-26.46,0.02-53.82,0.18-80.73c0.01-1.58-0.4-2.5-1.38-3.1c-1.01-0.62-2.63-0.87-5.4-0.82
				c-13.08,0.21-24.96,0.21-36.34-0.01c-2.63-0.05-4.26,0.2-5.26,0.81c-1.15,0.69-1.38,1.78-1.37,3.2
				C526.58,486.48,526.57,514.38,526.56,541.36z"/>
		</g>
		<g>
			<path class="st0" d="M580.07,694.84c0,6.46-0.04,51.86-0.09,58.33l-0.01,1.73H581l0.01-1.72c0.04-6.46,0.09-51.86,0.09-58.33
				v-9.34c0.01-48.78,0.03-99.22-0.08-148.83c0-1.42,0.29-2.18,1.01-2.62c0.76-0.46,2.07-0.65,4.31-0.6
				c12.32,0.22,24.96,0.13,35.86,0.03c1.81-0.01,2.9,0.14,3.52,0.53c0.58,0.36,0.85,0.97,0.85,1.98c0,1.34-0.05,2.7-0.1,4.02
				c-0.13,3.33-0.27,6.77,0.48,10.17c-0.04,0.44-0.09,0.89-0.14,1.33c-0.11,0.97-0.24,1.97-0.24,2.96
				c-0.02,46.05-0.02,92.09-0.02,138.14v62.3h1.04v-62.3c0-46.05,0-92.09,0.02-138.14c0-0.97,0.11-1.96,0.24-2.91
				c0.05-0.46,0.11-0.91,0.16-1.37v-0.03l-0.01-0.03c-0.74-3.35-0.6-6.78-0.48-10.09c0.05-1.32,0.1-2.69,0.1-4.03
				c0-1.2-0.36-1.95-1.16-2.44c-0.84-0.52-2.14-0.73-4.27-0.72c-10.88,0.1-23.51,0.19-35.82-0.03c-2.53-0.05-4.09,0.2-5.05,0.79
				c-1.11,0.67-1.33,1.72-1.33,3.09c0.11,49.61,0.09,100.05,0.08,148.83L580.07,694.84z"/>
		</g>
	</g>
	<g>
		<g>
			<path class="st0" d="M158.4,645.73c0.01,23.02,0.02,85.72-0.1,109.17h1.04c0.12-23.45,0.11-86.15,0.09-109.17l-0.01-21.25V472.17
				V421.4c0-1.96,0-3.03,0.78-3.47c0.8-0.45,2.75-0.45,6.3-0.45h32.65c3.15,0,4.88,0,5.58,0.42c0.69,0.41,0.69,1.45,0.69,3.33
				v111.74v37.25v37.17v147.51h1.04V607.39V421.23c0-4.23-0.27-4.39-7.3-4.39H166.5c-7.88,0-8.11,0.13-8.11,4.56v203.08
				L158.4,645.73z"/>
		</g>
		<g>
			<path class="st0" d="M51.61,544.21c-0.01,5.06-0.01,10.12-0.01,15.18v28.19c0.01,42.08,0.01,124.48-0.07,167.32h1.04
				c0.08-42.83,0.08-125.23,0.07-167.32v-28.19c0-5.06,0.01-10.12,0.01-15.18c0.02-15.07,0.04-30.66-0.12-46
				c-0.02-1.4,0.34-2.24,1.15-2.74c0.8-0.49,2.13-0.71,4.42-0.71c0.2,0,0.39,0,0.6,0.01c11.97,0.18,24.39,0.18,36.93-0.01
				c2.12-0.04,3.4,0.15,4.11,0.58c0.67,0.41,0.96,1.14,0.96,2.42c-0.1,29.89-0.09,60.29-0.09,89.68v20.91h-0.1v31.84v114.69h1.04
				V609.01h0.1v-21.56c-0.01-29.39-0.01-59.79,0.09-89.68c0-1.49-0.36-2.33-1.27-2.88c-0.92-0.57-2.42-0.8-4.86-0.77
				c-12.52,0.18-24.93,0.19-36.89,0.01c-2.95-0.04-4.68,0.22-5.77,0.89c-1.03,0.63-1.47,1.62-1.45,3.21
				C51.65,513.55,51.63,529.14,51.61,544.21z"/>
		</g>
		<g>
			<path class="st0" d="M105.68,704.64l-0.01,50.25h1.04l0.01-50.25c0.02-23.64,0.03-48.08-0.1-72.12c-0.01-1.33,0.29-2.09,1-2.53
				c0.75-0.46,2.11-0.66,4.43-0.64c9.99,0.1,20.15,0.03,29.98-0.03c3.74-0.03,7.49-0.05,11.22-0.06
				c0.72,10.31,0.69,20.81,0.67,30.96c-0.01,2.24-0.01,4.47-0.01,6.7c0,4.88,0,9.75-0.01,14.62c-0.01,11.28-0.03,61.84,0.07,73.34
				H155c-0.1-11.5-0.09-62.06-0.07-73.34c0.01-4.88,0.01-9.75,0.01-14.62c0-2.24,0-4.47,0.01-6.7c0.03-10.26,0.06-20.87-0.69-31.3
				l-0.02-0.31h-0.5c-3.9,0.01-7.82,0.04-11.72,0.06c-9.82,0.06-19.97,0.12-29.96,0.03c-2.66-0.03-4.19,0.22-5.17,0.82
				c-0.93,0.58-1.32,1.47-1.32,2.99C105.71,656.57,105.7,681.01,105.68,704.64z"/>
		</g>
		<g>
			<path class="st0" d="M0.02,754.89h1.04c0.09-28.17,0.09-95.46-0.02-123.3c0-0.99,0.28-1.63,0.89-2.02
				c0.68-0.42,1.86-0.59,3.97-0.58c13.31,0.11,24.5,0.15,35.85-0.03c2.43-0.04,3.79,0.14,4.54,0.61c0.7,0.43,1,1.19,0.98,2.46
				c-0.19,10.85-0.17,21.87-0.13,32.53c0.01,3.77,0.02,7.55,0.02,11.32c0,3.71-0.01,7.41-0.01,11.12
				c-0.01,9.49-0.02,58.19,0.06,67.88h1.04c-0.09-9.69-0.08-58.39-0.06-67.88c0.01-3.71,0.01-7.41,0.01-11.12
				c0-3.77-0.01-7.55-0.02-11.32c-0.03-10.66-0.05-21.69,0.13-32.53c0.02-1.46-0.37-2.36-1.28-2.92c-0.98-0.6-2.51-0.82-5.29-0.79
				c-11.33,0.17-22.5,0.14-35.81,0.03c-2.39-0.01-3.81,0.21-4.71,0.77c-0.83,0.51-1.2,1.3-1.2,2.48
				C0.11,659.44,0.11,726.73,0.02,754.89z"/>
		</g>
	</g>
	<g>
		<g>
			<path class="st0" d="M1789.92,426.26c0.01,18.35,0.01,36.71,0.01,55.06v24.36v30.04c0.01,56.31,0.01,171.92-0.1,219.17h1.04
				c0.12-47.25,0.11-162.87,0.1-219.17v-30.04v-24.36c0-18.35,0.01-36.71-0.01-55.06l-0.01-11.97c-0.01-25.35-0.03-51.56-0.19-77.34
				c-0.01-1.34,0.3-2.1,1.05-2.55c0.71-0.44,1.95-0.64,3.95-0.64c0.17,0,0.33,0,0.5,0.01c13.98,0.21,25.54,0.21,36.41-0.01
				c2.64-0.05,4.21,0.16,5.09,0.7c0.85,0.51,1.2,1.41,1.19,2.99c-0.15,23.27-0.13,46.92-0.12,69.79l0.01,19.79l-0.01,195.21
				c-0.01,30.72-0.01,101.39,0.08,132.67h1.04c-0.1-31.28-0.09-101.95-0.09-132.67l0.01-195.21l-0.01-19.8
				c-0.01-22.87-0.02-46.53,0.12-69.79c0.01-1.8-0.42-2.79-1.5-3.46c-1.12-0.68-2.87-0.94-5.85-0.88
				c-10.84,0.22-22.4,0.22-36.35,0.01c-2.59-0.05-4.2,0.21-5.2,0.82c-0.96,0.59-1.37,1.49-1.36,3.02
				c0.16,25.78,0.18,51.99,0.19,77.34L1789.92,426.26z"/>
		</g>
		<g>
			<path class="st0" d="M1738.38,617.1c0.02,32.4,0.03,104.81-0.11,137.79h1.04c0.15-32.99,0.13-105.39,0.11-137.79l-0.01-39.68
				c-0.01-49.24-0.03-123.64-0.19-164.06c-0.01-1.41,0.33-2.21,1.11-2.69c0.75-0.46,2.03-0.67,4.1-0.67c0.18,0,0.36,0,0.56,0.01
				c12.84,0.21,24.05,0.2,34.26-0.01c2.63-0.06,4.19,0.16,5.07,0.69c0.85,0.51,1.21,1.41,1.2,3c-0.14,35.64-0.13,100.93-0.12,148.6
				v26.55v55.96c-0.01,23.33-0.01,86.34,0.08,110.1h1.04c-0.09-23.76-0.09-86.77-0.08-110.1v-19.18V562.3
				c-0.01-47.67-0.02-112.95,0.12-148.6c0.01-1.8-0.43-2.81-1.51-3.47c-1.12-0.67-2.86-0.93-5.83-0.88
				c-10.2,0.22-21.38,0.22-34.21,0.01c-2.75-0.03-4.37,0.21-5.42,0.85c-1,0.62-1.43,1.56-1.42,3.16
				c0.16,40.42,0.17,114.83,0.19,164.06L1738.38,617.1z"/>
		</g>
		<g>
			<path class="st0" d="M1844.34,754.89v-125.8V433.68c0-1.82,0-2.82,0.7-3.22c0.74-0.41,2.53-0.41,5.79-0.41
				c11.06,0,22.12,0,33.18,0c3.17,0,4.92,0,5.63,0.42c0.69,0.41,0.69,1.45,0.69,3.33v222.42v98.67h1.04V433.79
				c0-4.23-0.28-4.4-7.36-4.4c-11.06,0-22.12,0-33.18,0c-7.25,0-7.54,0.16-7.54,4.28V574v180.88h1.05V754.89z"/>
		</g>
		<g>
			<path class="st0" d="M1685,608.95v19.07v126.87h1.04V646.13v-18.11v-19.07c0.01-37.01,0.02-92.93-0.08-118.43
				c0-1.24,0.26-1.91,0.9-2.31c0.67-0.41,1.86-0.58,3.86-0.55c8.67,0.12,17.49,0.1,26.02,0.08c3.43-0.01,6.85-0.02,10.27-0.02
				c3.45-0.01,5.37-0.01,6.15,0.43c0.75,0.41,0.75,1.46,0.75,3.35v196.85c0,2.79-0.01,5.58-0.01,8.38
				c-0.02,6.31-0.03,51.73,0.04,58.17h1.04c-0.07-6.44-0.06-51.86-0.04-58.17c0.01-2.79,0.01-5.58,0.01-8.38V491.49
				c0-4.3-0.22-4.43-7.81-4.43c-3.43-0.01-6.93,0.01-10.4,0.02c-8.52,0.03-17.33,0.05-25.99-0.08c-2.32-0.03-3.73,0.19-4.62,0.73
				c-1.07,0.65-1.21,1.72-1.21,2.77C1685.02,516.02,1685.01,571.94,1685,608.95z"/>
		</g>
	</g>
	<g>
		<g>
			<path class="st0" d="M2264.82,620.81c-0.06,29.85-0.12,99.62,0,134.08h1.04c-0.13-34.45-0.06-104.23,0-134.08
				c0.1-47.81,0.2-92.98-0.51-147.99c-0.3-23.55-0.22-47.49-0.13-70.65c0.03-10.13,0.07-20.27,0.08-30.4c0-0.58,0.07-1.17,0.16-1.74
				c0.08-0.64,0.17-1.3,0.16-1.96c-0.02-0.73,0.21-1.23,0.7-1.54c0.59-0.38,1.65-0.54,3.38-0.52c8.92,0.06,17.99,0.06,26.76,0.05
				c3.39-0.01,6.76-0.01,10.17-0.01c3.34,0,5.18,0,5.93,0.43c0.74,0.43,0.74,1.48,0.74,3.4v116.28v74.02
				c0,51.05-0.01,142.74,0.07,194.7h1.04c-0.07-51.96-0.07-143.65-0.07-194.7v-28.96V369.91c0-4.36-0.22-4.49-7.7-4.49
				c-3.41,0.01-6.78,0.01-10.18,0.01c-8.77,0.01-17.83,0.02-26.75-0.05c-2.01,0.01-3.31,0.21-4.12,0.71c-0.69,0.44-1.03,1.1-1,2
				c0.01,0.63-0.07,1.27-0.16,1.9c-0.07,0.58-0.16,1.19-0.16,1.79c0,10.13-0.04,20.27-0.07,30.39c-0.08,23.16-0.17,47.11,0.13,70.66
				C2265.02,527.84,2264.93,573,2264.82,620.81z"/>
		</g>
		<g>
			<path class="st0" d="M2211.46,559.38c0,6.8,0,13.6,0,20.4v9.27V754.9h1.04V621.5v-41.71c0-6.8,0-13.59,0-20.4l-0.01-14.96
				c-0.01-21.76-0.02-31.7-0.18-59.53c-0.01-1.38,0.31-2.17,1.07-2.63c0.8-0.49,2.18-0.68,4.66-0.64
				c13.07,0.21,24.97,0.21,36.41-0.01c2.33-0.05,3.72,0.15,4.5,0.63c0.76,0.46,1.07,1.25,1.06,2.74c-0.1,26.66-0.1,37.57-0.09,57.39
				v19.88v27.28c-0.01,41.45-0.01,123.18,0.09,165.37h1.04c-0.1-42.19-0.1-123.92-0.09-165.37v-27.28v-19.88
				c-0.01-19.81-0.01-30.73,0.09-57.39c0.01-1.41-0.23-2.5-1.37-3.2c-1-0.61-2.63-0.86-5.26-0.81c-11.41,0.22-23.3,0.22-36.34,0.01
				c-2.77-0.05-4.39,0.2-5.41,0.82c-0.97,0.6-1.39,1.52-1.38,3.1c0.17,27.83,0.17,37.76,0.18,59.53L2211.46,559.38z"/>
		</g>
		<g>
			<path class="st0" d="M2159.66,551.55c0.11,0.96,0.24,1.94,0.24,2.91c0.02,46.05,0.02,92.09,0.02,138.14v62.3h1.04v-62.3
				c0-46.05,0-92.09-0.02-138.14c0-0.99-0.12-1.99-0.24-2.96c-0.05-0.44-0.1-0.89-0.14-1.33c0.75-3.39,0.61-6.84,0.48-10.17
				c-0.05-1.32-0.1-2.68-0.1-4.02c0-1.01,0.26-1.62,0.85-1.98c0.62-0.38,1.71-0.54,3.53-0.53c10.89,0.1,23.55,0.19,35.86-0.03
				c2.23-0.04,3.55,0.15,4.31,0.6c0.72,0.44,1.01,1.2,1.01,2.62c-0.11,49.61-0.09,100.05-0.08,148.83v9.34
				c0,6.43,0.04,51.8,0.09,58.23l0.01,1.82h1.04l-0.01-1.83c-0.04-6.43-0.08-51.79-0.09-58.23v-9.34
				c-0.01-48.78-0.03-99.22,0.08-148.83c0-1.36-0.22-2.41-1.33-3.09c-0.96-0.59-2.52-0.84-5.05-0.79
				c-12.3,0.22-24.93,0.13-35.82,0.03c-2.1-0.02-3.43,0.2-4.27,0.72c-0.8,0.49-1.16,1.24-1.16,2.44c0,1.35,0.05,2.71,0.1,4.03
				c0.13,3.32,0.27,6.75-0.48,10.09l-0.01,0.03v0.03C2159.55,550.63,2159.61,551.09,2159.66,551.55z"/>
		</g>
		<g>
			<path class="st0" d="M2106.51,688.86c0.05,9.67,0.05,57.51,0,66.04h1.04c0.04-8.53,0.04-56.36,0-66.04
				c-0.03-5.34-0.11-10.76-0.2-16.01c-0.04-2.36-0.07-4.71-0.1-7.07c0.03-0.18,0.08-0.37,0.12-0.55c0.1-0.42,0.2-0.86,0.2-1.3
				c0-34.94-0.02-69.89-0.04-104.82v-6.27l47.4,0.01v15.43c-0.02,49.23-0.03,137.39-0.04,186.62h1.04
				c0-49.23,0.02-137.39,0.04-186.62l0.01-15.71l-0.06-0.17l-0.3-0.19l-48.73-0.01l-0.38,0.23v6.68
				c0.02,34.94,0.04,69.89,0.04,104.82c0,0.4-0.09,0.78-0.19,1.21c-0.04,0.19-0.09,0.4-0.12,0.59v0.04c0.03,2.37,0.07,4.73,0.1,7.09
				C2106.4,678.1,2106.48,683.53,2106.51,688.86z"/>
		</g>
	</g>
	<g>
		<g>
			<path class="st0" d="M1317.56,754.89h1.04c0.12-25.62,0.11-76.91,0.1-102.07l-0.01-21.32c0-3.62,0-5.45,1.44-6.28
				c1.45-0.84,4.6-0.84,10.85-0.84c2.71,0,5.43,0.01,8.14,0.03c6.46,0.03,13.15,0.06,19.71-0.08c2.38-0.05,3.73,0.13,4.5,0.6
				c0.72,0.44,1.05,1.21,1.03,2.5c-0.16,13.19-0.15,26.6-0.12,39.57c0.01,4.33,0.01,8.65,0.01,12.99c0,4.38-0.01,8.77-0.01,13.14
				c-0.02,11.95-0.03,49.59,0.08,61.78h1.04c-0.11-12.19-0.1-50.47-0.08-62.43c0.01-4.38,0.01-8.77,0.01-13.14
				c0-4.33-0.01-8.65-0.01-12.99c-0.02-12.97-0.04-26.38,0.12-39.57c0.02-1.48-0.39-1.75-1.34-2.32c-0.99-0.61-2.57-0.85-5.26-0.78
				c-6.54,0.14-13.22,0.11-19.67,0.08c-2.71-0.01-5.43-0.03-8.15-0.03c-6.53,0-9.81,0-11.56,1.02c-1.77,1.02-1.77,2.94-1.77,6.76
				l0.01,21.32C1317.68,677.99,1317.69,729.27,1317.56,754.89z"/>
		</g>
		<g>
			<path class="st0" d="M1264.35,754.89h1.04c0.02-2.38,0.01-30.12-0.11-32.57c-0.04-0.75,0.18-1.26,0.65-1.57
				c0.56-0.36,1.55-0.49,3.31-0.47c4.79,0.06,9.67,0.05,14.38,0.04c1.94-0.01,3.86-0.01,5.8-0.01c1.94-0.01,3.87,0.01,5.81,0.01
				c4.62,0.01,9.39,0.03,14.09-0.04c1.44-0.02,2.33,0.12,2.84,0.43c0.47,0.29,0.67,0.78,0.64,1.56c-0.08,2.28-0.11,30.01-0.1,32.62
				h1.04c-0.02-2.61,0.02-30.33,0.1-32.61c0.03-0.95-0.27-1.6-0.94-2.03c-0.71-0.45-1.86-0.65-3.59-0.62
				c-4.68,0.06-9.45,0.05-14.06,0.04c-1.89-0.01-3.79-0.01-5.68-0.01c-1.97,0.01-3.95,0.01-5.92,0.01
				c-4.71,0.01-9.58,0.03-14.36-0.04c-1.47-0.02-3.1,0.05-4.07,0.67c-0.69,0.44-1,1.09-0.95,2.05
				C1264.35,724.79,1264.37,752.52,1264.35,754.89z"/>
		</g>
		<g>
			<path class="st0" d="M1368.73,682v23c0,1.45,0.01,2.9,0.02,4.36c0.01,2.17,0.02,43.31,0.01,45.53h1.04
				c0.02-2.22,0.01-43.37-0.01-45.54c-0.01-1.45-0.02-2.9-0.02-4.36v-23c0-35.18,0.01-71.57-0.06-107.35c0-1.28,0.06-2.23,0.94-2.76
				c0.72-0.43,2.03-0.63,4.08-0.58c11.47,0.23,23.55,0.23,36.93,0.01c2.42-0.05,3.85,0.16,4.64,0.64c0.76,0.46,1.07,1.25,1.06,2.65
				c-0.14,18.58-0.13,37.47-0.11,55.74c0,5.62,0.01,11.24,0.01,16.86l-0.01,15.86c-0.01,17.34-0.02,74.17,0.07,91.84h1.04
				c-0.08-17.67-0.08-74.5-0.07-91.84l0.01-15.86c0-5.62,0-11.24-0.01-16.86c-0.01-18.27-0.03-37.15,0.11-55.73
				c0.01-1.58-0.39-2.52-1.37-3.11c-1.01-0.62-2.64-0.87-5.39-0.82c-13.36,0.22-25.42,0.21-36.87-0.01
				c-2.36-0.05-3.9,0.19-4.84,0.77c-1.17,0.71-1.26,1.83-1.26,3.23C1368.73,610.43,1368.73,646.82,1368.73,682z"/>
		</g>
		<g>
			<path class="st0" d="M1422.22,653.31c-0.01,4.34-0.01,8.69-0.01,13.04c0,4.38,0.01,8.75,0.01,13.13
				c0.02,11.96,0.03,63.22-0.08,75.42h1.04c0.11-12.19,0.1-63.46,0.08-75.42c-0.01-4.38-0.01-8.75-0.01-13.13
				c0-4.34,0.01-8.69,0.01-13.04c0.02-12.95,0.04-26.35-0.12-39.52c-0.02-1.29,0.3-2.06,1.03-2.5c0.69-0.42,1.84-0.61,3.77-0.61
				c0.24,0,0.48,0,0.74,0.01c6.56,0.14,13.25,0.11,19.71,0.08c2.71-0.01,5.43-0.03,8.14-0.03c6.25,0,9.4,0,10.85,0.84
				c1.44,0.84,1.44,2.65,1.44,6.28l-0.01,21.14c-0.01,25.23-0.02,90.2,0.1,115.88h1.04c-0.12-25.69-0.11-90.66-0.1-115.88
				l0.01-21.14c0-7.62-0.25-7.77-13.33-7.77c-2.71,0-5.43,0.01-8.15,0.03c-6.45,0.03-13.13,0.06-19.67-0.08
				c-2.7-0.06-4.27,0.18-5.27,0.78c-0.94,0.58-1.36,1.49-1.34,2.98C1422.26,626.97,1422.25,640.36,1422.22,653.31z"/>
		</g>
	</g>
	<g>
		<g>
			<path class="st0" d="M2527.59,625.75l0.04,129.14h1.04l-0.04-129.14c-0.02-44.31-0.04-86.64-0.06-138.44
				c-0.01-43.46-0.01-86.93-0.01-130.39v-45.14c0-1.83,0-2.85,0.72-3.25c0.75-0.41,2.58-0.41,5.9-0.42
				c3.45-0.01,6.94,0.01,10.42,0.03c8.17,0.04,16.62,0.08,24.92-0.12c2.6-0.06,4.13,0.14,4.98,0.65c0.83,0.5,1.15,1.35,1.15,3.01
				c-0.11,59.42-0.11,119.84-0.11,178.27v38.93c-0.01,30.91-0.01,36.52-0.01,67.75v23.57c-0.01,31.38-0.01,102.72,0.1,134.68h1.04
				c-0.11-31.96-0.11-103.29-0.1-134.68v-23.57c0-31.23,0-36.84,0.01-67.75v-38.93c0-58.43,0-118.85,0.11-178.27
				c0-1.56-0.25-2.74-1.47-3.48c-1.08-0.65-2.84-0.91-5.75-0.84c-8.27,0.2-16.71,0.16-24.87,0.12c-3.48-0.02-6.95-0.03-10.43-0.03
				c-7.37,0-7.65,0.16-7.65,4.32v45.14c0,43.46-0.01,86.93,0,130.39C2527.54,539.12,2527.56,581.45,2527.59,625.75z"/>
		</g>
		<g>
			<g>
				<path class="st0" d="M2582.08,754.89V570.21V447.16c0-1.87,0-2.91,0.69-3.33c0.7-0.42,2.43-0.42,5.58-0.42
					c10.88,0,21.77,0,32.65,0c3.54,0,5.5,0,6.3,0.45c0.78,0.43,0.78,1.51,0.78,3.47v177.14l-0.01,21.07
					c-0.01,23.08-0.02,85.84,0.09,109.34h1.04c-0.12-23.51-0.11-86.26-0.09-109.34l0.01-21.07V447.33c0-4.44-0.23-4.56-8.11-4.56
					c-10.88,0-21.76,0-32.65,0c-7.03,0-7.3,0.16-7.31,4.39v123.06v184.68H2582.08z"/>
			</g>
			<g>
				<path class="st0" d="M2685.87,588.24v20.78h0.1v145.88h1.04V608.7l-0.1-0.32v-20.13c0.01-22.06,0.01-35.37-0.09-64.53
					c0-1.28,0.28-2,0.96-2.42c0.71-0.43,1.98-0.62,4.11-0.58c12.54,0.18,24.97,0.18,36.93,0.01c2.65-0.04,4.15,0.17,5.02,0.71
					c0.81,0.5,1.16,1.34,1.15,2.74c-0.16,14.11-0.14,15.84-0.13,22.27c0.01,2.87,0.02,6.7,0.02,12.97v27.48
					c-0.01,42.32-0.01,124.95,0.07,168.02h1.04c-0.09-43.07-0.08-125.71-0.07-168.02V559.4c0-6.28-0.01-10.1-0.02-12.97
					c-0.02-6.42-0.02-8.16,0.13-22.26c0.02-1.59-0.43-2.57-1.46-3.21c-1.09-0.67-2.81-0.93-5.77-0.89
					c-11.95,0.18-24.36,0.18-36.88-0.01c-2.43-0.03-3.93,0.2-4.86,0.77c-0.91,0.56-1.27,1.39-1.27,2.88
					C2685.88,552.87,2685.88,566.19,2685.87,588.24z"/>
			</g>
			<g>
				<path class="st0" d="M2632.56,666.94c0,4.86,0,9.72,0.01,14.59c0.01,11.29,0.02,61.85-0.08,73.37h1.04
					c0.1-11.51,0.09-62.08,0.07-73.37c-0.01-4.86-0.01-9.72-0.01-14.59c0-2.23,0-4.45-0.01-6.68c-0.03-10.16-0.06-20.66,0.67-30.98
					c3.74,0.01,7.49,0.04,11.22,0.06c9.83,0.06,19.98,0.13,29.99,0.03c2.33-0.03,3.68,0.18,4.43,0.64c0.71,0.44,1.01,1.19,1,2.53
					c-0.13,24.13-0.11,48.67-0.1,72.4l0.01,49.98h1.04l-0.01-49.98c-0.02-23.73-0.04-48.26,0.1-72.39c0.01-1.52-0.38-2.42-1.32-2.99
					c-0.97-0.6-2.52-0.85-5.17-0.82c-9.98,0.1-20.13,0.03-29.96-0.03c-3.9-0.03-7.82-0.05-11.72-0.06h-0.5l-0.02,0.31
					c-0.75,10.44-0.72,21.06-0.69,31.32C2632.56,662.48,2632.56,664.71,2632.56,666.94z"/>
			</g>
		</g>
	</g>
</g>
<g>
	<g>
		<g>
			<rect x="362.86" y="126.99" class="st0" width="0.48" height="627.91"/>
		</g>
		<g>
			<path class="st0" d="M316.7,119.83c-0.01,110.66,0,156.42,0,267.08v232.41c0,31.68,0.01,103.32-0.06,135.57h1.04
				c0.06-32.25,0.06-103.9,0.06-135.57V386.91c0-110.66,0-156.42,0-267.08l-0.01-0.97c-0.01-1.57-0.02-2.43,0.49-2.75
				c0.49-0.3,1.75-0.29,4.05-0.28c0.7,0.01,1.5,0.01,2.4,0.01c4-0.01,7.98-0.01,11.98,0.01c7.31,0.01,14.86,0.03,22.28-0.07
				c2.13-0.02,3.4,0.16,4.1,0.6c0.66,0.41,0.94,1.1,0.92,2.22c-0.16,6.98-0.12,14.07-0.1,20.93c0.01,2.61,0.02,5.21,0.02,7.82v68.14
				c0,54.7,0,28.79,0,77.77c-0.02,100.07-0.04,200.15-0.07,300.22l-0.03,161.4h1.04l0.03-161.4c0.02-100.07,0.05-200.15,0.07-300.22
				c0.01-48.98,0.01-23.06,0-77.77v-68.14c0-2.61-0.01-5.21-0.02-7.82c-0.02-6.86-0.05-13.95,0.1-20.92
				c0.03-1.32-0.35-2.15-1.22-2.69c-0.94-0.58-2.38-0.82-4.86-0.79c-7.41,0.09-14.96,0.08-22.26,0.06c-4-0.01-7.99-0.01-11.98-0.01
				c-0.9,0-1.7-0.01-2.39-0.01c-2.66-0.02-4-0.03-4.78,0.47c-0.82,0.51-0.81,1.35-0.79,3.21V119.83z"/>
		</g>
		<g>
			<path class="st0" d="M209.93,463.77v38.63c0.01,31.42,0.01,62.83,0.01,94.26v23.73c0.01,31.33,0.01,102.61-0.1,134.51h1.04
				c0.11-31.9,0.1-103.18,0.1-134.51v-23.73c0-31.42,0-62.83-0.01-94.26v-38.63c0-58.34,0-118.67-0.11-178.01
				c0-1.67,0.32-2.52,1.15-3.01c0.85-0.51,2.39-0.71,4.98-0.65c8.29,0.2,16.74,0.16,24.92,0.12c3.47-0.02,6.94-0.04,10.42-0.03
				c3.32,0,5.15,0,5.9,0.42c0.72,0.4,0.72,1.41,0.72,3.25v45.79c0,43.25,0.01,86.49,0,129.74c-0.02,60.98-0.04,121.97-0.07,182.95
				l-0.03,110.57h1.04l0.03-110.57c0.03-60.98,0.05-121.97,0.07-182.95c0.01-43.25,0.01-86.49,0-129.74v-45.79
				c0-4.16-0.29-4.31-7.65-4.32c-3.49-0.01-6.95,0.02-10.43,0.03c-8.16,0.04-16.6,0.08-24.87-0.12c-2.9-0.07-4.67,0.19-5.74,0.84
				c-1.22,0.74-1.47,1.93-1.47,3.48C209.93,345.09,209.93,405.42,209.93,463.77z"/>
		</g>
		<g>
			<path class="st0" d="M368.26,305.96c-0.01,77.97-0.01,155.94-0.01,233.91v74.58c0.01,33.28,0.01,106.57-0.09,140.45h1.04
				c0.1-33.88,0.09-107.17,0.09-140.45v-74.58c0-77.97,0-155.94,0.01-233.91c0-0.45-0.01-0.86-0.01-1.23
				c-0.02-1.46-0.04-2.26,0.46-2.57c0.42-0.27,1.45-0.31,3.21-0.31c0.39,0,0.83,0,1.3,0.01c0.68,0.01,1.46,0.01,2.32,0.01
				c3.81-0.01,7.62,0.01,11.42,0.02c7.66,0.03,15.58,0.05,23.37-0.09c2.31-0.04,3.67,0.14,4.41,0.6c0.71,0.43,1.01,1.19,1.01,2.53
				c-0.11,44.02-0.11,88.77-0.11,132.05v26.5c0,16.28,0,32.55,0.01,48.83c0.01,67.88,0.01,174.71,0.01,242.6h1.04
				c0-67.89,0-174.71-0.01-242.6c-0.01-16.28-0.01-32.55-0.01-48.83v-26.5c0-43.28,0-88.03,0.11-132.05c0-1.53-0.39-2.43-1.33-3
				c-0.97-0.6-2.52-0.83-5.16-0.78c-7.78,0.14-15.69,0.11-23.34,0.08c-3.81-0.01-7.62-0.02-11.43-0.02c-0.86,0-1.63,0-2.31-0.01
				c-3.03-0.02-4.42-0.02-5.25,0.5c-0.81,0.51-0.79,1.35-0.76,3.04C368.26,305.11,368.26,305.51,368.26,305.96z"/>
		</g>
		<g>
			<path class="st0" d="M263.33,565.69l-0.01,23.07v25.8c0.01,33.24,0.02,106.5-0.11,140.33h1.04
				c0.13-33.84,0.12-107.09,0.11-140.33v-25.8l0.01-23.07c0.01-28.51,0.02-57.98-0.12-86.98c-0.01-1.55,0.35-2.43,1.2-2.95
				c0.89-0.54,2.43-0.76,5.16-0.71c11.43,0.21,23.16,0.22,35.89,0.01c2.28-0.05,3.63,0.15,4.38,0.6c0.71,0.43,1.01,1.2,1.01,2.55
				c-0.11,32.63-0.11,65.8-0.1,97.89v22.98v23.75c-0.01,30.52-0.01,100.97,0.1,132.05h1.04c-0.11-31.07-0.11-101.52-0.1-132.05
				v-23.75V576.1c-0.01-32.08-0.01-65.26,0.1-97.88c0.01-1.57-0.37-2.44-1.33-3.02c-0.97-0.6-2.51-0.83-5.13-0.78
				c-12.7,0.21-24.42,0.21-35.83-0.01c-3.03-0.06-4.79,0.21-5.91,0.89c-1.07,0.65-1.52,1.67-1.51,3.42
				C263.35,507.71,263.34,537.18,263.33,565.69z"/>
		</g>
	</g>
	<g>
		<g>
			<path class="st0" d="M1105.99,586.49v2.82v23.75c0.01,33.73,0.02,107.5-0.1,141.84h1.04c0.12-34.34,0.11-108.11,0.1-141.84V589.3
				v-2.82c0.01-28.86,0.02-58.7-0.15-88.05c-0.01-1.56,0.34-2.44,1.16-2.94c0.87-0.53,2.39-0.73,5.1-0.67
				c10.49,0.22,21.89,0.23,35.88,0.02c2.41-0.04,3.77,0.15,4.52,0.62c0.71,0.43,1.03,1.2,1.01,2.47
				c-0.15,30.72-0.17,61.95-0.18,92.15l-0.01,3.03c0,1.96,0,3.92,0.01,5.87v26.07c-0.01,29.8-0.01,99.51,0.11,129.84h1.04
				c-0.12-30.33-0.12-100.04-0.11-129.84v-26.07c-0.01-1.96-0.01-3.92-0.01-5.87l0.01-3.03c0.01-30.2,0.02-61.43,0.18-92.15
				c0.01-1.47-0.4-2.37-1.33-2.94c-0.99-0.61-2.53-0.84-5.28-0.8c-13.97,0.21-25.35,0.2-35.82-0.02c-3.02-0.06-4.77,0.19-5.86,0.86
				c-1.06,0.64-1.49,1.63-1.48,3.41C1106,527.79,1106,557.62,1105.99,586.49z"/>
		</g>
		<g>
			<path class="st0" d="M1052.53,754.89h1.04c0.07-6.44,0.06-51.85,0.04-58.15c-0.01-2.8-0.01-5.59-0.01-8.4v-132
				c0-1.89,0-2.93,0.75-3.35c0.78-0.43,2.71-0.44,6.13-0.43c3.43,0,6.85,0.01,10.27,0.02c8.53,0.03,17.36,0.05,26.04-0.08
				c2.01-0.03,3.2,0.14,3.86,0.55c0.64,0.4,0.9,1.06,0.9,2.31c-0.09,24.51-0.09,29.98-0.08,54.07v38.7V754.9h1.04V648.15v-38.7
				c-0.01-24.1-0.01-29.56,0.08-54.07c0-1.05-0.13-2.11-1.21-2.77c-0.88-0.54-2.31-0.76-4.62-0.74c-8.67,0.13-17.48,0.1-26.01,0.08
				c-3.46-0.01-6.93-0.03-10.38-0.02c-7.59,0-7.81,0.12-7.81,4.43v132c0,2.8,0.01,5.59,0.01,8.4
				C1052.59,703.05,1052.6,748.46,1052.53,754.89z"/>
		</g>
		<g>
			<path class="st0" d="M1159.37,630.21c0,5.56-0.01,11.12-0.01,16.69l0.01,16.14c0.01,17.36,0.02,74.19-0.07,91.87h1.04
				c0.09-17.68,0.08-74.52,0.07-91.87l-0.01-16.14c0-5.56,0-11.12,0.01-16.69c0.01-18.23,0.03-17.61-0.12-36.16
				c-0.01-1.39,0.31-2.17,1.07-2.64c0.72-0.45,1.95-0.64,4.01-0.64c0.21,0,0.42,0,0.65,0.01c11.52,0.2,23.22,0.2,34.8,0
				c2.44-0.04,3.9,0.17,4.72,0.67c0.77,0.48,1.1,1.3,1.06,2.66c-0.79,25.76-0.72,32.48-0.65,57.8c0.03,11.03,0.05,22.43,0.01,33.65
				l-0.02,4.51c-0.03,8.49-0.06,56.15,0.05,64.81h1.04c-0.12-8.66-0.09-56.32-0.05-64.81l0.02-4.51
				c0.04-11.22,0.01-22.62-0.01-33.65c-0.06-25.32-0.13-32.04,0.65-57.79c0.05-1.58-0.36-2.52-1.36-3.14
				c-1.04-0.64-2.72-0.91-5.48-0.86c-11.56,0.2-23.25,0.2-34.75,0c-2.78-0.05-4.39,0.19-5.42,0.82c-0.97,0.6-1.39,1.52-1.38,3.1
				C1159.4,612.59,1159.38,611.98,1159.37,630.21z"/>
		</g>
		<g>
			<path class="st0" d="M1210.93,642.33c-0.01,4.82-0.01,9.64-0.02,14.46c0,5.24,0,10.47,0,15.71c0.01,14.25,0.01,67.88-0.07,82.4
				h1.04c0.09-14.52,0.08-68.15,0.07-82.4c0-5.24-0.01-10.47,0-15.71c0-4.82,0.01-9.64,0.02-14.46c0.02-15.71,0.05-12.5-0.13-28.49
				c-0.02-1.39,0.32-2.24,1.11-2.72c0.84-0.51,2.33-0.72,4.98-0.67c10.59,0.18,21.98,0.18,36.93,0.02c1.93-0.03,3.09,0.15,3.72,0.54
				c0.6,0.37,0.87,1.03,0.87,2.13c-0.12,42.09-0.13,102.67-0.04,141.75h1.04c-0.09-39.08-0.08-99.66,0.04-141.75
				c0-1.3-0.35-2.07-1.18-2.59c-0.87-0.53-2.2-0.75-4.46-0.73c-14.93,0.16-26.31,0.16-36.89-0.02c-2.99-0.04-4.66,0.2-5.73,0.86
				c-0.99,0.62-1.44,1.59-1.42,3.18C1210.99,629.83,1210.95,626.61,1210.93,642.33z"/>
		</g>
	</g>
	<g>
		<g>
			<path class="st0" d="M789.82,498.42c-0.01,0.23-0.02,0.46-0.02,0.69v47.72c0,62.87,0,145.2,0.01,208.07h1.04
				c-0.01-62.87-0.01-145.2-0.01-208.07v-47.72c0-0.23,0.01-0.45,0.02-0.67c0.02-0.49,0.04-1-0.03-1.52
				c-0.1-0.73,0.06-1.24,0.51-1.55c0.5-0.34,1.43-0.5,2.88-0.5c15.67,0.07,28.59,0.07,40.68-0.01c1.3-0.03,2.2,0.14,2.69,0.44
				c0.63,0.4,0.68,1.12,0.68,1.96c-0.04,7.95-0.04,15.89-0.03,23.84v107.74v126.05h1.04V628.84V521.1
				c-0.01-7.94-0.01-15.89,0.03-23.83c0-0.99-0.06-1.85-0.98-2.42c-0.7-0.44-1.79-0.62-3.43-0.63c-12.07,0.08-25,0.08-40.66,0.01
				c-1.76,0.01-2.93,0.21-3.64,0.71c-0.67,0.45-0.91,1.1-0.78,2.04C789.86,497.45,789.84,497.92,789.82,498.42z"/>
		</g>
		<g>
			<path class="st0" d="M631.58,754.89h1.04c-0.01-52.47-0.02-143.88-0.04-196.35v-5.7l47.4-0.01v3.31
				c-0.02,35.93-0.04,71.86-0.04,107.79c0,0.44,0.1,0.88,0.2,1.3c0.04,0.18,0.08,0.37,0.12,0.55c-0.03,2.37-0.07,4.73-0.1,7.11
				c-0.08,5.24-0.17,10.65-0.2,15.97c-0.05,9.71-0.05,57.54,0,66.04h1.04c-0.04-8.49-0.04-56.33,0-66.04
				c0.03-5.32,0.11-10.74,0.19-15.97c0.04-2.37,0.07-4.75,0.1-7.12v-0.04c-0.03-0.2-0.08-0.4-0.12-0.6
				c-0.09-0.41-0.19-0.81-0.19-1.2c0-35.93,0.02-71.86,0.04-107.79v-3.59l0.04-0.11l-0.42-0.26l-48.52,0.01l-0.28,0.04l-0.3,0.19
				v6.12C631.55,611.02,631.58,702.42,631.58,754.89z"/>
		</g>
		<g>
			<path class="st0" d="M685.02,754.89h1.04c-0.04-12.58-0.06-64.08-0.07-76.65l-0.01-9.85l47.32,0.22l0.1,86.28h1.04l-0.1-86.6
				v-0.32l-48.61-0.22c-0.25-0.03-0.37,0.03-0.59,0.14l-0.19,0.1l0.01,10.25C684.96,690.82,684.98,742.32,685.02,754.89z"/>
		</g>
		<g>
			<path class="st0" d="M738.46,754.89h1.04c-0.05-12.64-0.08-64.2-0.11-76.83l-0.02-9.72l45.41,0.14
				c0.01,4.11,0.01,8.22,0.01,12.32c0.01,11.53,0.01,62.33,0.12,74.08h1.04c-0.11-11.75-0.11-62.56-0.12-74.08
				c0-4.21,0-8.43-0.01-12.65v-0.32l-46.65-0.14c-0.17-0.01-0.27,0.03-0.61,0.16l-0.24,0.1l0.02,10.11
				C738.38,690.7,738.41,742.26,738.46,754.89z"/>
		</g>
	</g>
	<g>
		<g class="st1">
			<g>
				<rect x="2424.17" y="172.31" class="st0" width="0.48" height="582.58"/>
			</g>
		</g>
		<g>
			<path class="st0" d="M2422.61,184.88c-0.01,2.61-0.02,5.21-0.02,7.81v52.57c0,19.11,0,30.17,0,73.95
				c0.02,88.25,0.04,166.45,0.06,247.11l0.04,188.58h1.04l-0.04-188.58c-0.02-80.66-0.04-158.86-0.06-247.11
				c-0.01-43.77-0.01-54.84-0.01-73.95v-52.57c0-2.6,0.01-5.21,0.02-7.81c0.02-6.87,0.05-13.96-0.1-20.94
				c-0.02-1.13,0.26-1.82,0.92-2.22c0.7-0.44,1.97-0.63,4.1-0.6c7.42,0.09,14.98,0.08,22.28,0.07c4-0.01,7.98-0.01,11.98-0.01
				c0.91,0,1.71-0.01,2.4-0.01c2.3-0.01,3.56-0.03,4.05,0.28c0.51,0.32,0.5,1.18,0.49,2.75l-0.01,0.97
				c0.01,100.34,0.01,131.39,0,218.82v28.87v206.48c0,31.68-0.01,103.32,0.06,135.57h1.04c-0.06-32.25-0.06-103.9-0.06-135.57
				V383.99c0-87.43,0-118.47,0-218.82l0.01-0.96c0.02-1.85,0.03-2.7-0.79-3.21c-0.8-0.49-2.13-0.49-4.79-0.47
				c-0.69,0.01-1.49,0.01-2.39,0.01c-4-0.01-7.99,0-11.98,0.01c-7.3,0.01-14.85,0.03-22.26-0.06c-2.46-0.04-3.91,0.21-4.86,0.79
				c-0.88,0.54-1.25,1.37-1.22,2.7C2422.66,170.92,2422.63,178.01,2422.61,184.88z"/>
		</g>
		<g>
			<path class="st0" d="M2369.78,462.91v26.5c0,16.28,0,32.56-0.01,48.83c-0.01,67.88-0.01,149.46-0.01,216.66h1.04
				c0-67.2,0-148.77,0.01-216.66c0.01-16.28,0.01-32.56,0.01-48.83v-26.5c0-43.28,0-88.03-0.11-132.05c0-1.34,0.3-2.1,1.01-2.53
				c0.75-0.45,2.1-0.64,4.41-0.6c7.79,0.14,15.71,0.11,23.37,0.09c3.81-0.01,7.62-0.03,11.43-0.02c0.87,0,1.64,0,2.32-0.01
				c2.57-0.01,3.99-0.02,4.51,0.3c0.5,0.31,0.49,1.12,0.46,2.57c-0.01,0.36-0.01,0.77-0.01,1.23c0.01,78.92,0.01,139.82,0.01,212.74
				v70c-0.01,33.21-0.01,106.44,0.09,140.25h1.04c-0.1-33.82-0.09-107.04-0.09-140.25v-70c0-72.92,0-133.82-0.01-212.74
				c0-0.45,0.01-0.86,0.01-1.22c0.03-1.69,0.04-2.53-0.76-3.04c-0.83-0.52-2.22-0.51-5.25-0.5c-0.68,0.01-1.45,0.01-2.31,0.01
				c-3.81-0.01-7.62,0.01-11.43,0.02c-7.65,0.03-15.56,0.05-23.34-0.09c-2.64-0.05-4.18,0.19-5.16,0.78c-0.93,0.57-1.33,1.47-1.33,3
				C2369.78,374.87,2369.78,419.63,2369.78,462.91z"/>
		</g>
		<g>
			<path class="st0" d="M2317.76,368.39c0.01,91.19,0,168.66,0,252.37v134.14h1.04V620.75c0-83.71,0-161.18,0-252.37V364
				c0-11.02,0-22.42-0.19-33.63c-0.02-1.07,0.24-1.72,0.84-2.09c0.64-0.4,1.81-0.56,3.8-0.54c8.27,0.1,16.69,0.08,24.83,0.06
				c3.32-0.01,6.65-0.01,9.96-0.01c3.4,0,5.27,0,6.04,0.43c0.75,0.41,0.75,1.46,0.75,3.35c0,68.92,0,137.85,0,206.77v6.74
				c0,21.84,0,25.8,0,51.4v21.37c0,32.16,0,104.3,0.08,137.05h1.04c-0.09-32.75-0.08-104.89-0.08-137.05v-21.37
				c0-25.6,0-29.56,0-51.4v-6.74c0.01-68.92,0.01-137.85,0-206.77c0-4.3-0.22-4.43-7.81-4.43c-3.29,0-6.65,0.01-9.97,0.01
				c-8.14,0.02-16.55,0.03-24.81-0.06c-2.32-0.03-3.68,0.19-4.55,0.73c-0.82,0.51-1.17,1.3-1.15,2.55
				c0.19,11.21,0.19,22.61,0.19,33.63L2317.76,368.39z"/>
		</g>
		<g>
			<path class="st0" d="M2474.7,576.92v22.17v23.66c0.01,30.55,0.01,101.04-0.1,132.15h1.04c0.11-31.11,0.11-101.6,0.1-132.15
				v-23.66v-22.17c0.01-25.46,0.01-40.82-0.1-72.76c-0.01-1.35,0.3-2.12,1-2.55c0.68-0.41,1.87-0.61,3.81-0.61
				c0.18,0,0.37,0,0.56,0.01c12.75,0.21,24.49,0.21,35.89-0.01c2.72-0.06,4.27,0.16,5.16,0.71c0.85,0.52,1.21,1.4,1.2,2.95
				c-0.14,28.21-0.14,41.01-0.13,62.21c0,6.35,0.01,13.43,0.01,21.91v25.76c-0.01,33.25-0.02,106.52,0.11,140.38h1.04
				c-0.13-33.85-0.12-107.13-0.11-140.38v-25.76c0-8.47,0-15.56-0.01-21.91c-0.01-21.2-0.02-34,0.13-62.21
				c0.01-1.74-0.45-2.76-1.51-3.42c-1.12-0.68-2.89-0.94-5.91-0.89c-11.38,0.22-23.1,0.22-35.83,0.01
				c-2.63-0.05-4.15,0.19-5.13,0.78c-0.94,0.58-1.33,1.45-1.33,3.02C2474.71,536.1,2474.71,551.46,2474.7,576.92z"/>
		</g>
	</g>
	<g>
		<g>
			<path class="st0" d="M1894.85,454.96c0.01,17.28,0.01,59.56,0.01,89.74v25.51v184.68h1.04V607.23V544.7
				c0-30.17,0.01-72.45,0-89.74l-0.01-11.88c-0.01-22.24-0.02-45.25-0.19-67.87c-0.01-1.3,0.31-2.08,1.05-2.53
				c0.78-0.48,2.16-0.67,4.48-0.64c8.54,0.12,17.22,0.1,25.62,0.08c3.42-0.01,6.83-0.02,10.25-0.02c3.33,0,5.18,0,5.92,0.45
				c0.74,0.44,0.74,1.53,0.74,3.51l-0.01,239.66c-0.01,32.86-0.02,105.73,0.1,139.18h1.04c-0.11-33.45-0.11-106.32-0.1-139.18
				l0.01-239.66c0-4.48-0.22-4.61-7.7-4.61c-3.42,0-6.83,0.01-10.26,0.02c-8.39,0.03-17.06,0.05-25.6-0.08
				c-2.66-0.04-4.22,0.21-5.24,0.82c-0.96,0.59-1.37,1.48-1.36,3c0.17,22.62,0.18,45.62,0.19,67.87L1894.85,454.96z"/>
		</g>
		<g>
			<path class="st0" d="M1948.24,456.33v298.56h1.04V638.81v-39.86v-35.2V456.33c0-7.97,0.01-15.94-0.03-23.92
				c0-0.84,0.04-1.56,0.68-1.96c0.48-0.3,1.32-0.44,2.58-0.44c0.04,0,0.07,0,0.11,0c12.11,0.08,25.04,0.08,40.68,0.01
				c1.45,0,2.38,0.16,2.88,0.5c0.45,0.3,0.61,0.81,0.51,1.55c-0.07,0.51-0.05,1.02-0.03,1.52c0.01,0.23,0.02,0.45,0.02,0.67v45.89
				c0,75.48,0,209.33-0.01,274.75h1.04c0.01-65.42,0.01-199.27,0.01-274.75v-45.89c0-0.23-0.01-0.46-0.02-0.69
				c-0.02-0.5-0.04-0.97,0.03-1.44c0.13-0.94-0.11-1.59-0.78-2.04c-0.72-0.49-1.89-0.71-3.66-0.71
				c-15.64,0.07-28.56,0.07-40.66-0.01c-1.65,0.01-2.72,0.19-3.43,0.63c-0.92,0.57-0.99,1.43-0.98,2.42
				C1948.25,440.39,1948.24,448.36,1948.24,456.33z"/>
		</g>
		<g>
			<path class="st0" d="M2054.1,754.89l0.1-86.28l47.32-0.22l-0.01,10.44c-0.02,12.38-0.04,63.68-0.07,76.07h1.04
				c0.04-12.38,0.06-63.68,0.07-76.07l0.01-10.84l-0.19-0.1c-0.17-0.08-0.33-0.17-0.54-0.15l-48.15,0.22h-0.52l-0.1,86.92
				L2054.1,754.89L2054.1,754.89z"/>
		</g>
		<g>
			<path class="st0" d="M2002.59,754.89c0.11-11.79,0.11-62.62,0.12-74.17c0-4.08,0-8.16,0.01-12.24l45.41-0.14l-0.02,10.08
				c-0.03,12.51-0.06,63.96-0.11,76.47h1.04c0.05-12.51,0.08-63.96,0.11-76.47l0.02-10.48l-0.24-0.1c-0.29-0.12-0.45-0.18-0.63-0.16
				l-46.62,0.14v0.32c-0.01,4.19-0.01,8.38-0.01,12.56c-0.01,11.55-0.01,62.39-0.12,74.17L2002.59,754.89L2002.59,754.89z"/>
		</g>
	</g>
	<g>
		<g>
			<path class="st0" d="M1632.08,593.12c0,1.96,0,3.92-0.01,5.87v26.07c0.01,29.8,0.01,99.5-0.11,129.84h1.04
				c0.12-30.33,0.12-100.04,0.11-129.84v-26.07c0.01-1.96,0.01-3.92,0.01-5.87c-0.01-8.6-0.01-19.49-0.01-31.65
				c-0.01-41.68-0.03-98.77-0.18-128.38c-0.01-1.28,0.31-2.04,1.01-2.47c0.76-0.47,2.11-0.65,4.52-0.62
				c14.01,0.21,25.41,0.2,35.88-0.02c2.71-0.06,4.23,0.14,5.1,0.67c0.83,0.5,1.17,1.38,1.16,2.94
				c-0.17,30.13-0.16,91.35-0.15,131.86v23.85v24.03c-0.01,33.64-0.01,107.32,0.1,141.57h1.04c-0.12-34.25-0.11-107.92-0.1-141.56
				v-24.03v-23.85c-0.01-40.51-0.02-101.73,0.15-131.86c0.01-1.78-0.41-2.77-1.48-3.41c-1.09-0.66-2.85-0.91-5.86-0.86
				c-10.45,0.22-21.83,0.23-35.82,0.02c-2.75-0.04-4.29,0.19-5.28,0.8c-0.92,0.57-1.34,1.47-1.33,2.94
				c0.15,29.62,0.17,86.7,0.18,128.38C1632.07,573.62,1632.07,584.52,1632.08,593.12z"/>
		</g>
		<g>
			<path class="st0" d="M1580.54,651.94c-0.03,11.02-0.05,22.42-0.01,33.63l0.02,4.43c0.04,8.52,0.06,56.21-0.05,64.9h1.04
				c0.12-8.69,0.09-56.38,0.05-64.9l-0.02-4.43c-0.04-11.21-0.01-22.61,0.01-33.63c0.06-25.33,0.13-109.92-0.65-135.68
				c-0.04-1.37,0.28-2.18,1.06-2.66c0.82-0.51,2.28-0.72,4.72-0.67c11.58,0.2,23.29,0.2,34.8,0c2.47-0.05,3.86,0.15,4.66,0.64
				c0.76,0.46,1.08,1.25,1.07,2.64c-0.16,18.52-0.13,37.35-0.12,55.56c0,5.58,0.01,69.56,0.01,75.14l-0.01,15.98
				c-0.01,17.41-0.02,74.29,0.07,92.02h1.04c-0.09-17.73-0.08-74.62-0.07-92.02l0.01-15.98c0-5.58,0-69.56-0.01-75.14
				c-0.01-18.21-0.03-37.04,0.12-55.56c0.01-1.58-0.4-2.5-1.38-3.1c-1.01-0.62-2.63-0.86-5.42-0.82c-11.5,0.2-23.19,0.2-34.74,0
				c-2.75-0.05-4.44,0.22-5.48,0.86c-0.99,0.62-1.41,1.56-1.36,3.14C1580.67,542.03,1580.61,626.61,1580.54,651.94z"/>
		</g>
		<g>
			<path class="st0" d="M1527.05,754.89h1.04c0.09-39.17,0.08-151.66-0.04-193.66c0-1.1,0.27-1.75,0.87-2.13
				c0.64-0.4,1.8-0.56,3.73-0.54c14.95,0.16,26.34,0.16,36.93-0.02c2.65-0.05,4.14,0.16,4.98,0.67c0.79,0.48,1.13,1.32,1.11,2.72
				c-0.18,15.97-0.16,64.65-0.13,80.35c0.01,4.84,0.01,9.67,0.02,14.5c0,5.24,0,10.49,0,15.74c-0.01,14.24-0.01,67.85,0.07,82.37
				h1.04c-0.09-14.52-0.08-68.13-0.07-82.37c0-5.24,0.01-10.49,0-15.74c0-4.84-0.01-9.67-0.02-14.5
				c-0.02-15.7-0.05-64.38,0.13-80.34c0.02-1.59-0.41-2.57-1.42-3.18c-1.07-0.65-2.72-0.9-5.73-0.86
				c-10.58,0.18-21.95,0.18-36.89,0.02c-2.27-0.01-3.6,0.19-4.46,0.73c-0.83,0.51-1.18,1.28-1.18,2.59
				C1527.14,603.24,1527.16,715.72,1527.05,754.89z"/>
		</g>
		<g>
			<path class="st0" d="M1473.78,754.89h1.04c0.02-2.61-0.02-43.93-0.1-46.25c-0.03-0.77,0.18-1.26,0.64-1.56
				c0.48-0.3,1.29-0.44,2.58-0.44c0.08,0,0.18,0,0.26,0c4.7,0.06,9.47,0.05,14.09,0.04c1.89-0.01,3.79-0.01,5.68-0.01
				c1.99,0,3.95,0.01,5.92,0.01c4.71,0.01,9.59,0.03,14.38-0.04c1.77-0.02,2.75,0.12,3.31,0.47c0.48,0.3,0.69,0.82,0.65,1.57
				c-0.12,2.45-0.15,43.81-0.11,46.19h1.04c-0.02-2.37-0.01-43.73,0.11-46.17c0.05-0.95-0.26-1.6-0.95-2.05
				c-0.98-0.62-2.61-0.69-4.07-0.67c-4.78,0.06-9.65,0.05-14.36,0.04c-1.98-0.01-3.93-0.02-5.92-0.01c-1.89,0-3.79,0.01-5.68,0.01
				c-4.61,0.01-9.38,0.03-14.06-0.04c-1.73-0.02-2.87,0.18-3.59,0.62c-0.68,0.43-0.98,1.07-0.94,2.03
				C1473.76,710.97,1473.8,752.29,1473.78,754.89z"/>
		</g>
	</g>
</g>
</svg>
