<?xml version="1.0" encoding="utf-8"?>
<!-- Generator: Adobe Illustrator 28.0.0, SVG Export Plug-In . SVG Version: 6.00 Build 0)  -->
<svg version="1.1" id="Layer_1" xmlns="http://www.w3.org/2000/svg" xmlns:xlink="http://www.w3.org/1999/xlink" x="0px" y="0px"
	 viewBox="0 0 16 16" style="enable-background:new 0 0 16 16;" xml:space="preserve">
<style type="text/css">
	.st0{fill:#C10000;}
	.st1{fill:#4B00C1;}
	.st2{fill:#007BC2;}
	.st3{fill:#BF007F;}
	.st4{fill:#74149C;}
</style>
<g>
	<path class="st1" d="M1.1,6C1.1,6,1.1,5.9,1.1,6l13.7,0c0,0,0,0,0,0H16V2C16,1.5,15.6,1,15.1,1H0.9C0.4,1,0,1.5,0,2v4H1.1z"/>
	<path class="st1" d="M14.9,6.9c0,1.5,0,4.4,0,5.9c0,0.8-0.3,1.2-1.2,1.2c-3.8,0-7.6,0-11.3,0c-0.9,0-1.2-0.3-1.2-1.2
		c0-1.5,0-4.4,0-5.9H0V14C0,14.5,0.4,15,0.9,15h14.1c0.5,0,0.9-0.4,0.9-0.9V6.9H14.9z"/>
</g>
</svg>
