<?xml version="1.0" encoding="utf-8"?>
<!-- Generator: Adobe Illustrator 28.0.0, SVG Export Plug-In . SVG Version: 6.00 Build 0)  -->
<svg version="1.1" id="Layer_1" xmlns="http://www.w3.org/2000/svg" xmlns:xlink="http://www.w3.org/1999/xlink" x="0px" y="0px"
	 viewBox="0 0 16 16" style="enable-background:new 0 0 16 16;" xml:space="preserve">
<style type="text/css">
	.st0{fill:#007BC2;}
</style>
<g>
	<path class="st0" d="M15.1,1H6v1h8.1c0.5,0.1,0.8,0.5,0.8,1.1c0,3.2,0,6.5,0,9.7c0,0.7-0.4,1.1-1.1,1.1c-2.2,0-4.4,0-6.6,0H6v1h9.1
		c0.5,0,0.9-0.4,0.9-0.9V2C16,1.5,15.6,1,15.1,1z"/>
	<path class="st0" d="M5,2.4c0-0.1,0-0.3,0-0.3V1H0.9C0.4,1,0,1.5,0,2v12c0,0.5,0.4,1,0.9,1H5V2.4z"/>
</g>
</svg>
