<?xml version="1.0" encoding="utf-8"?>
<!-- Generator: Adobe Illustrator 28.0.0, SVG Export Plug-In . SVG Version: 6.00 Build 0)  -->
<svg version="1.1" id="Layer_1" xmlns="http://www.w3.org/2000/svg" xmlns:xlink="http://www.w3.org/1999/xlink" x="0px" y="0px"
	 viewBox="0 0 16 16" style="enable-background:new 0 0 16 16;" xml:space="preserve">
<style type="text/css">
	.st0{fill:#007BC2;}
</style>
<g>
	<path class="st0" d="M14.9,6.9c0,2,0,4.7,0,6.4c0,0.5-0.1,0.7-0.3,0.8H1.5c-0.2-0.1-0.3-0.3-0.3-0.7c0-1.7,0-4.5,0-6.5H0V14
		c0,0.5,0.4,1,0.9,1H15c0.5,0,0.9-0.4,0.9-0.9V6.9H14.9z"/>
	<g>
		<path class="st0" d="M5.1,1H0.9C0.4,1,0,1.5,0,2v4h1.1l0,0h4l0,0c0-0.7,0-1.3,0-1.8V1z"/>
		<path class="st0" d="M15.1,1h-4.2v1l0,0c0,0.3,0,1.9,0,4h4l0,0H16V2C16,1.5,15.6,1,15.1,1z"/>
		<path class="st0" d="M10,1H6.1v1l0,0c0,0.3,0,1.9,0,4H10l0,0c0-0.1,0-0.3,0-0.4V1z"/>
	</g>
</g>
</svg>
